<?xml version="1.0" encoding="utf-8"?><svg viewBox="0 0 841 100" xmlns="http://www.w3.org/2000/svg" xmlns:xlink="http://www.w3.org/1999/xlink"><style>:root>svg{display:none}:root>svg:target{display:block}</style><svg fill="none" viewBox="0 0 17 29" id="arrow" xmlns="http://www.w3.org/2000/svg"><path d="M14.5 27 2.212 14.712a.3.3 0 0 1 0-.424L14.5 2" stroke="#3579F4" stroke-width="4" stroke-linecap="round"/></svg><svg fill="none" viewBox="0 0 31 31" id="burger" xmlns="http://www.w3.org/2000/svg"><g stroke="#3579F4" stroke-width="2"><circle cx="6.5" cy="6.5" r="5.5"/><circle cx="24.5" cy="6.5" r="5.5"/><circle cx="6.5" cy="24.5" r="5.5"/><circle cx="24.5" cy="24.5" r="5.5"/></g></svg><svg fill="none" viewBox="0 0 841 4" id="line" xmlns="http://www.w3.org/2000/svg"><path d="M2 2h837" stroke="#3579F4" stroke-width="3" stroke-linecap="round"/></svg><svg viewBox="0 0 254 74" id="logo" xmlns="http://www.w3.org/2000/svg"><path d="M26.388 51.188h-7.981l3.307-15.822-8.52 15.822h-4.89L6.688 34.817 3.236 51.188H0l4.853-23.257h9.168l1.114 13.112 6.903-13.112h9.24l-4.89 23.257ZM29.615 51.188l4.853-23.257h9.67c1.487 0 2.781.159 3.884.476 1.126.293 2.049.794 2.768 1.502.743.708 1.294 1.636 1.654 2.784.383 1.147.575 2.551.575 4.212a20.26 20.26 0 0 1-.683 5.237c-.432 1.71-1.163 3.235-2.193 4.578-1.03 1.343-2.385 2.43-4.063 3.26-1.654.806-3.703 1.208-6.147 1.208H29.615Zm9.85-2.563c.791 0 1.486-.33 2.085-.99.624-.683 1.15-1.538 1.582-2.563.456-1.05.827-2.198 1.115-3.443a38 38 0 0 0 .719-3.662c.191-1.172.323-2.222.395-3.15.096-.928.144-1.587.144-1.978 0-.757-.156-1.343-.467-1.758-.288-.44-.803-.66-1.546-.66h-1.726L37.92 48.626h1.546ZM72.3 51.188h-8.412l-.504-5.823h-6.65l-2.553 5.823h-3.487l10.605-23.257h8.52L72.3 51.188Zm-14.38-8.497h5.213l-.827-9.962-4.386 9.962ZM112.546 35.122c.073-.356.109-.843.109-1.46 0-.356-.024-.7-.073-1.033a3.224 3.224 0 0 0-.256-.926 1.316 1.316 0 0 0-.549-.641c-.244-.166-.561-.25-.951-.25-.439 0-.842.095-1.207.285-.366.19-.696.44-.988.748-.269.285-.488.63-.659 1.033-.146.38-.219.784-.219 1.211 0 .617.158 1.092.475 1.425.342.332.781.605 1.317.819.537.214 1.147.392 1.83.534.683.143 1.39.309 2.122.499.61.166 1.22.38 1.829.64a5.24 5.24 0 0 1 1.61 1.07c.488.427.878.997 1.171 1.709.293.689.439 1.555.439 2.6 0 1.496-.305 2.754-.914 3.775-.61 1.021-1.452 1.852-2.525 2.493-1.073.641-2.354 1.104-3.842 1.39-1.463.284-3.061.427-4.793.427-1.756 0-3.196-.107-4.318-.32-1.097-.238-1.963-.488-2.597-.749-.757-.309-1.318-.665-1.683-1.068l1.244-4.88h6.439c-.024.214-.049.51-.073.89-.024.357-.037.642-.037.855 0 .285.037.582.11.89.073.31.183.594.329.856.171.26.403.475.696.64.292.167.658.25 1.097.25.488 0 .915-.107 1.281-.32.39-.214.707-.475.951-.784a3.29 3.29 0 0 0 .586-1.069c.146-.403.219-.795.219-1.175 0-.522-.134-.961-.402-1.318-.244-.356-.586-.652-1.025-.89a6.431 6.431 0 0 0-1.536-.641c-.562-.19-1.147-.38-1.757-.57a28.494 28.494 0 0 1-1.866-.605 6.418 6.418 0 0 1-1.756-.998 5.514 5.514 0 0 1-1.354-1.602c-.341-.665-.512-1.508-.512-2.53 0-1.519.39-2.789 1.171-3.81a9.269 9.269 0 0 1 3-2.529 13.822 13.822 0 0 1 3.988-1.353 21.127 21.127 0 0 1 4.098-.428c1.708 0 3.171.202 4.391.606 1.244.38 2.183.831 2.817 1.353l-1.354 4.951h-6.073ZM139.179 51.185h-7.903l2.195-10.08h-4.5l-2.195 10.08h-7.904l4.94-22.616h7.94l-2.159 9.83h4.464l2.159-9.83h7.976l-5.013 22.616ZM150.413 51.185h-7.904l4.94-22.616h7.94l-4.976 22.616ZM165.457 41.426c.732 0 1.341-.297 1.829-.89.513-.594.927-1.318 1.244-2.173.342-.855.586-1.745.732-2.671.146-.926.22-1.733.22-2.422 0-.641-.11-1.175-.33-1.603-.219-.45-.695-.676-1.427-.676h-1.646l-2.305 10.435h1.683Zm-2.195 2.28-1.647 7.479h-7.903l4.939-22.616h8.452c1.391 0 2.659.07 3.806.213 1.146.143 2.134.428 2.963.855a4.644 4.644 0 0 1 1.94 1.852c.463.784.695 1.84.695 3.17 0 1.235-.208 2.41-.622 3.526-.391 1.092-1.037 2.054-1.94 2.885-.878.807-2.024 1.448-3.439 1.923-1.415.475-3.134.712-5.159.712h-2.085ZM186.664 41.426c.732 0 1.342-.297 1.83-.89.512-.594.926-1.318 1.244-2.173.341-.855.585-1.745.731-2.671.147-.926.22-1.733.22-2.422 0-.641-.11-1.175-.329-1.603-.22-.45-.696-.676-1.427-.676h-1.647l-2.305 10.435h1.683Zm-2.195 2.28-1.647 7.479h-7.903l4.94-22.616h8.452c1.39 0 2.658.07 3.805.213 1.146.143 2.134.428 2.964.855a4.647 4.647 0 0 1 1.939 1.852c.463.784.695 1.84.695 3.17 0 1.235-.207 2.41-.622 3.526-.39 1.092-1.037 2.054-1.939 2.885-.878.807-2.025 1.448-3.44 1.923-1.414.475-3.134.712-5.159.712h-2.085ZM204.03 51.185h-7.904l4.94-22.616h7.94l-4.976 22.616ZM226.831 51.185h-8.562l-4.061-16.348-3.586 16.348h-3.293l4.939-22.616h8.745l3.842 16.561 3.622-16.561h3.366l-5.012 22.616ZM243.133 40.856h9.476l-2.122 10.329h-4.317l-.695-2.28h-.147a8.871 8.871 0 0 1-2.268 1.817c-.854.498-1.976.748-3.366.748a9.79 9.79 0 0 1-3.11-.499 7.618 7.618 0 0 1-2.635-1.638c-.756-.76-1.366-1.745-1.829-2.956-.464-1.211-.695-2.672-.695-4.381 0-1.852.292-3.61.878-5.271a12.396 12.396 0 0 1 2.634-4.381c1.171-1.282 2.634-2.291 4.391-3.027 1.756-.736 3.805-1.105 6.147-1.105 1.805 0 3.378.202 4.72.606 1.341.404 2.61.855 3.805 1.353l-1.391 6.91h-6.183c.024-.261.061-.57.11-.926.049-.356.085-.724.11-1.104.024-.404.048-.796.073-1.176.024-.38.036-.712.036-.997 0-.19-.012-.403-.036-.64a2.628 2.628 0 0 0-.183-.749 1.304 1.304 0 0 0-.439-.57c-.195-.166-.476-.249-.842-.249-.634 0-1.219.261-1.756.784-.512.498-.976 1.175-1.391 2.03-.414.83-.78 1.78-1.097 2.849a46.107 46.107 0 0 0-.769 3.277 52.012 52.012 0 0 0-.475 3.24 29.833 29.833 0 0 0-.147 2.743c0 .237.013.534.037.89.024.357.098.713.22 1.069.146.332.341.63.585.89.268.238.646.356 1.134.356.805 0 1.586-.427 2.342-1.282s1.329-2.28 1.72-4.274h-3.074l.549-2.386Z"/><path d="M86.905 39.213c.214 16.05-12.746 23.536-18.984 25.273 8.823-2.457 22.193-10.683 22.193-25.273 0-5.993-1.07-14.449-10.696-21.886-8.177-6.318-19.69-7.622-25.529-7.812a.355.355 0 0 0-.247.088l-9.585 8.357c-.113.099-.01.28.137.24 6.183-1.67 11.897-1.907 18.111-1.655 6.418.26 24.357 4.43 24.6 22.668Z"/><path d="M91.058 39.979c-.273 21.605 16.24 31.683 24.189 34.021-11.243-3.307-28.277-14.38-28.277-34.021 0-8.067 1.362-19.45 13.627-29.462C111.025 2.005 125.711.254 133.145 0a.39.39 0 0 1 .281.107l12.153 11.194c.162.15.014.425-.196.366-7.841-2.226-15.094-2.54-22.981-2.202-8.177.35-31.034 5.962-31.344 30.514Z" fill="#3579F4"/></svg><svg fill="none" viewBox="0 0 100 100" id="play" xmlns="http://www.w3.org/2000/svg"><circle cx="50" cy="50" r="50" fill="#fff" fill-opacity=".9"/><path d="M66.506 48.651a.976.976 0 0 1 0 1.697L41.529 64.86c-.675.391-1.529-.083-1.529-.849V34.99c0-.766.855-1.24 1.529-.849l24.977 14.511Z" fill="#3579F4"/></svg><svg fill="none" viewBox="0 0 33 32" id="telegram" xmlns="http://www.w3.org/2000/svg"><g clip-path="url(#fa)"><path fill-rule="evenodd" clip-rule="evenodd" d="M16.5 0C7.388 0 0 7.164 0 16s7.388 16 16.5 16S33 24.836 33 16 25.612 0 16.5 0Zm7.648 10.881c-.248 2.53-1.323 8.67-1.869 11.503-.23 1.2-.687 1.601-1.127 1.64-.959.085-1.686-.615-2.614-1.204-1.452-.923-2.273-1.497-3.683-2.399-1.629-1.041-.573-1.613.355-2.548.244-.245 4.465-3.969 4.547-4.306.01-.043.021-.2-.077-.283-.097-.083-.239-.055-.34-.032-.146.032-2.466 1.519-6.96 4.46-.66.439-1.256.652-1.791.641-.589-.012-1.722-.322-2.565-.589-1.032-.325-1.854-.499-1.783-1.05.037-.289.446-.583 1.227-.885 4.81-2.032 8.017-3.372 9.622-4.02 4.583-1.848 5.534-2.169 6.156-2.18.778-.01.965.612.902 1.252Z" fill="#fff"/></g><defs><clipPath id="fa"><path d="M0 16.5C0 7.387 7.387 0 16.5 0S33 7.387 33 16.5V32H0V16.5Z" fill="#fff"/></clipPath></defs></svg><svg fill="none" viewBox="0 0 31 31" id="tik-tok" xmlns="http://www.w3.org/2000/svg"><g clip-path="url(#ga)"><path d="M29.017 12.744a12.67 12.67 0 0 1-7.414-2.385v10.83c0 5.41-4.4 9.81-9.809 9.81a9.75 9.75 0 0 1-5.621-1.778 9.805 9.805 0 0 1-4.188-8.031c0-5.41 4.401-9.81 9.81-9.81.45 0 .89.037 1.322.095V16.916a4.424 4.424 0 0 0-1.321-.207c-2.47 0-4.48 2.01-4.48 4.48a4.483 4.483 0 0 0 4.48 4.48 4.483 4.483 0 0 0 4.473-4.311L16.273 0h5.329a7.43 7.43 0 0 0 7.414 7.415l.001 5.329Z" fill="#fff"/></g><defs><clipPath id="ga"><path fill="#fff" d="M0 0h31v31H0z"/></clipPath></defs></svg><svg fill="none" viewBox="0 0 33 32" id="whatsapp" xmlns="http://www.w3.org/2000/svg"><g clip-path="url(#ha)"><path fill-rule="evenodd" clip-rule="evenodd" d="M28.193 4.65C25.09 1.654 20.965.002 16.57 0 7.513 0 .142 7.112.138 15.856a15.404 15.404 0 0 0 2.194 7.928L0 32l8.71-2.205a16.885 16.885 0 0 0 7.851 1.93h.007c9.055 0 16.428-7.113 16.432-15.857.003-4.236-1.705-8.221-4.807-11.217ZM16.57 29.048h-.006c-2.45 0-4.853-.636-6.95-1.838l-.5-.285-5.168 1.308 1.38-4.864-.325-.499a12.803 12.803 0 0 1-2.087-7.013c.003-7.267 6.13-13.179 13.663-13.179 3.647 0 7.076 1.374 9.654 3.864 2.578 2.492 3.997 5.803 3.996 9.324-.004 7.27-6.13 13.182-13.657 13.182Zm7.49-9.871c-.41-.199-2.428-1.157-2.805-1.29-.376-.131-.65-.198-.924.198-.275.396-1.06 1.29-1.3 1.555-.24.264-.48.297-.89.098-.41-.198-1.734-.616-3.302-1.966-1.22-1.051-2.045-2.348-2.284-2.746-.24-.397-.025-.61.18-.808.184-.177.41-.462.616-.694.207-.23.274-.395.413-.66.136-.264.069-.496-.035-.695-.103-.197-.924-2.148-1.265-2.941-.333-.774-.672-.668-.925-.68a16.386 16.386 0 0 0-.787-.014 1.53 1.53 0 0 0-1.094.496c-.376.398-1.437 1.356-1.437 3.306s1.471 3.834 1.676 4.098c.204.264 2.894 4.267 7.013 5.983.98.408 1.745.652 2.34.835.984.301 1.88.258 2.587.157.788-.113 2.428-.959 2.771-1.884.343-.925.343-1.72.24-1.884-.103-.167-.377-.265-.787-.464Z" fill="#fff"/></g><defs><clipPath id="ha"><path d="M0 16.5C0 7.387 7.387 0 16.5 0S33 7.387 33 16.5V32H0V16.5Z" fill="#fff"/></clipPath></defs></svg><svg fill="none" viewBox="0 0 36 36" id="youtube" xmlns="http://www.w3.org/2000/svg"><g clip-path="url(#ia)"><path d="M35.247 9.279a4.525 4.525 0 0 0-3.183-3.204C29.258 5.319 18 5.319 18 5.319s-11.258 0-14.066.756A4.523 4.523 0 0 0 .753 9.279C0 12.105 0 18 0 18s0 5.895.753 8.721a4.525 4.525 0 0 0 3.183 3.204c2.806.756 14.064.756 14.064.756s11.258 0 14.066-.756a4.527 4.527 0 0 0 3.182-3.204C36 23.895 36 18 36 18s0-5.895-.753-8.721ZM14.319 23.354V12.646L23.727 18l-9.408 5.354Z" fill="#fff"/></g><defs><clipPath id="ia"><path fill="#fff" d="M0 0h36v36H0z"/></clipPath></defs></svg></svg>