<svg width="33" height="32" viewBox="0 0 33 32" fill="none" xmlns="http://www.w3.org/2000/svg">
<g clip-path="url(#clip0_304_504)">
<path fill-rule="evenodd" clip-rule="evenodd" d="M16.5 0C7.38788 0 0 7.164 0 16C0 24.836 7.38788 32 16.5 32C25.6121 32 33 24.836 33 16C33 7.164 25.6121 0 16.5 0ZM24.1478 10.8813C23.9002 13.4107 22.825 19.5507 22.2791 22.384C22.0481 23.584 21.5916 23.9853 21.1516 24.024C20.1933 24.1093 19.4659 23.4093 18.5378 22.82C17.0858 21.8973 16.2649 21.3227 14.8555 20.4213C13.2261 19.38 14.2821 18.808 15.2103 17.8733C15.4536 17.628 19.6749 13.904 19.7574 13.5667C19.767 13.524 19.778 13.3667 19.6804 13.284C19.5828 13.2013 19.4411 13.2293 19.3394 13.252C19.1936 13.284 16.874 14.7707 12.3791 17.712C11.7205 18.1507 11.1238 18.364 10.5889 18.3533C10.0004 18.3413 8.86738 18.0307 8.0245 17.764C6.99188 17.4387 6.16963 17.2653 6.24113 16.7133C6.27825 16.4253 6.68663 16.1307 7.46763 15.8293C12.2774 13.7973 15.4852 12.4573 17.0899 11.8093C21.6728 9.96133 22.6243 9.64 23.2458 9.62933C24.024 9.61867 24.211 10.2413 24.1478 10.8813Z" fill="white"/>
</g>
<defs>
<clipPath id="clip0_304_504">
<path d="M0 16.5C0 7.3873 7.3873 0 16.5 0C25.6127 0 33 7.3873 33 16.5V32H0V16.5Z" fill="white"/>
</clipPath>
</defs>
</svg>
