<svg width="31" height="31" viewBox="0 0 31 31" fill="none" xmlns="http://www.w3.org/2000/svg">
<g clip-path="url(#clip0_601_5)">
<path d="M29.0173 12.7436C26.2545 12.7436 23.6931 11.8601 21.6032 10.3592V21.1898C21.6032 26.5993 17.2025 30.9987 11.7943 30.9987C9.70435 30.9987 7.76556 30.34 6.17293 29.2214C3.64385 27.4453 1.98535 24.5081 1.98535 21.1898C1.98535 15.7803 6.38606 11.3796 11.7956 11.3796C12.2451 11.3796 12.6842 11.417 13.1169 11.4752V12.7371V16.9157C12.6984 16.7852 12.2567 16.709 11.7956 16.709C9.32589 16.709 7.31606 18.7188 7.31606 21.1898C7.31606 22.9103 8.29256 24.4048 9.71856 25.1552C10.3399 25.482 11.0464 25.6693 11.7969 25.6693C14.2097 25.6693 16.1782 23.7499 16.2686 21.3577L16.2725 0H21.6019C21.6019 0.462417 21.6471 0.913209 21.7272 1.35238C22.1031 3.38288 23.3082 5.12533 24.9783 6.21421C26.1408 6.97242 27.5281 7.41546 29.0161 7.41546L29.0173 12.7436Z" fill="white"/>
</g>
<defs>
<clipPath id="clip0_601_5">
<rect width="31" height="31" fill="white"/>
</clipPath>
</defs>
</svg>
