<svg width="33" height="32" viewBox="0 0 33 32" fill="none" xmlns="http://www.w3.org/2000/svg">
<g clip-path="url(#clip0_304_507)">
<path fill-rule="evenodd" clip-rule="evenodd" d="M28.1933 4.65067C25.0902 1.65333 20.9647 0.00133333 16.5698 0C7.51325 0 0.142307 7.112 0.138162 15.856C0.13678 18.6507 0.893908 21.3787 2.33217 23.784L0 32L8.70973 29.7947C11.1096 31.0587 13.8121 31.724 16.5615 31.7253H16.5684C25.6235 31.7253 32.9959 24.612 33 15.868C33.0028 11.632 31.2951 7.64667 28.1933 4.65067ZM16.5698 29.0467H16.5642C14.1132 29.0467 11.7106 28.4107 9.61331 27.2093L9.11455 26.924L3.94591 28.232L5.32615 23.368L5.00147 22.8693C3.63366 20.7707 2.91246 18.3453 2.91384 15.856C2.9166 8.58933 9.04409 2.67733 16.5767 2.67733C20.2242 2.67733 23.6533 4.05067 26.2314 6.54133C28.8095 9.03333 30.2285 12.344 30.2271 15.8653C30.2229 23.1347 24.0968 29.0467 16.5698 29.0467ZM24.0609 19.176C23.6506 18.9773 21.632 18.0187 21.2548 17.8867C20.879 17.7547 20.6055 17.688 20.3305 18.084C20.0556 18.48 19.2708 19.3733 19.0304 19.6387C18.7914 19.9027 18.551 19.936 18.1407 19.7373C17.7303 19.5387 16.4067 19.1213 14.8386 17.7707C13.6186 16.72 12.7938 15.4227 12.5548 15.0253C12.3158 14.628 12.5299 14.4147 12.7344 14.2173C12.9195 14.04 13.1447 13.7547 13.3506 13.5227C13.5578 13.2933 13.6255 13.128 13.7637 12.8627C13.9005 12.5987 13.8328 12.3667 13.7292 12.168C13.6255 11.9707 12.8049 10.02 12.4636 9.22667C12.1306 8.45333 11.7921 8.55867 11.5393 8.54667C11.3003 8.53467 11.0267 8.53333 10.7518 8.53333C10.4782 8.53333 10.0333 8.632 9.65753 9.02933C9.28172 9.42667 8.22064 10.3853 8.22064 12.3347C8.22064 14.2853 9.69207 16.1693 9.89654 16.4333C10.101 16.6973 12.791 20.7 16.9096 22.416C17.8892 22.824 18.6546 23.068 19.2501 23.2507C20.2338 23.552 21.1291 23.5093 21.8365 23.408C22.6254 23.2947 24.2654 22.4493 24.608 21.524C24.9507 20.5987 24.9507 19.804 24.8471 19.64C24.7448 19.4733 24.4713 19.3747 24.0609 19.176Z" fill="white"/>
</g>
<defs>
<clipPath id="clip0_304_507">
<path d="M0 16.5C0 7.3873 7.3873 0 16.5 0C25.6127 0 33 7.3873 33 16.5V32H0V16.5Z" fill="white"/>
</clipPath>
</defs>
</svg>
