<svg width="36" height="36" viewBox="0 0 36 36" fill="none" xmlns="http://www.w3.org/2000/svg">
<g clip-path="url(#clip0_601_2)">
<path d="M35.247 9.27897C34.833 7.72047 33.6135 6.49197 32.064 6.07497C29.2575 5.31897 18 5.31897 18 5.31897C18 5.31897 6.7425 5.31897 3.9345 6.07497C2.3865 6.49197 1.167 7.71897 0.753 9.27897C0 12.105 0 18 0 18C0 18 0 23.895 0.753 26.721C1.167 28.2795 2.3865 29.508 3.936 29.925C6.7425 30.681 18 30.681 18 30.681C18 30.681 29.2575 30.681 32.0655 29.925C33.6135 29.508 34.833 28.281 35.2485 26.721C36 23.895 36 18 36 18C36 18 36 12.105 35.247 9.27897ZM14.319 23.3535V12.6465L23.727 18L14.319 23.3535Z" fill="white"/>
</g>
<defs>
<clipPath id="clip0_601_2">
<rect width="36" height="36" fill="white"/>
</clipPath>
</defs>
</svg>
